<svg xmlns="http://www.w3.org/2000/svg" xmlns:xlink="http://www.w3.org/1999/xlink" width="16" height="16" version="1.1" viewBox="0 0 16 16"><g id="icomoon-ignore"><line stroke="#449FDB" stroke-width="1"/></g><path fill="#000" d="M8.703 0.313l7 7.063q0.297 0.297 0.297 0.711t-0.297 0.711l-1.406 1.422q-0.297 0.297-0.711 0.297t-0.711-0.297l-2.875-2.891v7.672q0 0.422-0.289 0.711t-0.711 0.289h-1.984q-0.422 0-0.711-0.289t-0.289-0.711v-7.688l-2.891 2.906q-0.297 0.297-0.711 0.297t-0.711-0.297l-1.406-1.422q-0.297-0.297-0.297-0.711t0.297-0.711l7-7.063q0.281-0.297 0.703-0.297t0.703 0.297z"/></svg>