<svg xmlns="http://www.w3.org/2000/svg" xmlns:xlink="http://www.w3.org/1999/xlink" width="512" height="512" fill="#000" viewBox="0 0 512 512"><path d="M 448,512l-384,0 q-26.5,0 -45.25-18.75t-18.75-45.25l0-48 q0-13 9.25-22.5t 22.5-9.5t 22.75,9.5t 9.5,22.5l0,16 q0,13.5 9.25,22.75t 22.75,9.25l 320,0 q 13,0 22.5-9.25t 9.5-22.75l0-16 q0-13 9.25-22.5t 22.5-9.5t 22.75,9.5t 9.5,22.5l0,48 q0,26.5 -18.75,45.25t-45.25,18.75zM 272.5,377q-7,7 -16.5,7t-16.5-7l-170.5-172.5 q-6-6.5 -4.25-9.5t 9.25-3l 118,0 l0-160 q0-13.5 9.25-22.75t 22.75-9.25l 64,0 q 13.5,0 22.75,9.25t 9.25,22.75l0,160 l 117.5,0 q 7.5,0 9.5,3t-4,9.5z"/></svg>