<svg xmlns="http://www.w3.org/2000/svg" xmlns:svg="http://www.w3.org/2000/svg" id="svg2" width="16" height="16" version="1.1" viewBox="0 0 16 16"><metadata id="metadata10"/><path id="path4" fill="#ff3b30" fill-opacity="1" d="M8 16q-2.172 0-4.016-1.070t-2.914-2.914-1.070-4.016 1.070-4.016 2.914-2.914 4.016-1.070 4.016 1.070 2.914 2.914 1.070 4.016-1.070 4.016-2.914 2.914-4.016 1.070zM12 7.5q0-0.203-0.148-0.352t-0.352-0.148h-7q-0.203 0-0.352 0.148t-0.148 0.352v1q0 0.203 0.148 0.352t0.352 0.148h7q0.203 0 0.352-0.148t0.148-0.352v-1z"/></svg>