<svg xmlns="http://www.w3.org/2000/svg" xmlns:xlink="http://www.w3.org/1999/xlink" width="16" height="16" version="1.1" viewBox="0 0 16 16"><path fill="#000" d="M16 13q0 0.828-0.586 1.414t-1.414 0.586h-12q-0.828 0-1.414-0.586t-0.586-1.414v-8q0-0.406 0.289-0.703t0.711-0.297h7.5q0-0.188 0.18-0.516t0.352-0.563l0.188-0.25q0.109-0.281 0.438-0.477t0.688-0.195h3.75q0.375 0 0.703 0.195t0.438 0.477q0.766 0.906 0.766 1.328v9zM0.719 1.672q0.109-0.281 0.438-0.477t0.688-0.195h3.75q0.375 0 0.703 0.195t0.453 0.477l0.75 1.328h-7.5z"/></svg>