<svg xmlns="http://www.w3.org/2000/svg" xmlns:svg="http://www.w3.org/2000/svg" id="svg2" width="16" height="16" version="1.1" viewBox="0 0 16 16"><metadata id="metadata12"/><path id="path6" fill="#ff3b30" fill-opacity="1" d="M8 16q-1.625 0-3.109-0.633t-2.555-1.703-1.703-2.555-0.633-3.109 0.633-3.109 1.703-2.555 2.555-1.703 3.109-0.633 3.109 0.633 2.555 1.703 1.703 2.555 0.633 3.109-0.633 3.109-1.703 2.555-2.555 1.703-3.109 0.633zM11.859 5.531q0.141-0.156 0.141-0.359t-0.141-0.344l-0.688-0.688q-0.156-0.141-0.352-0.141t-0.352 0.141l-2.469 2.484-2.484-2.484q-0.141-0.141-0.344-0.141t-0.344 0.141l-0.688 0.688q-0.141 0.141-0.141 0.344t0.141 0.359l2.469 2.469-2.469 2.469q-0.141 0.156-0.141 0.359t0.141 0.344l0.688 0.688q0.141 0.141 0.344 0.141t0.344-0.141l2.484-2.484 2.469 2.484q0.156 0.141 0.352 0.141t0.352-0.141l0.688-0.688q0.141-0.141 0.141-0.344t-0.141-0.359l-2.484-2.469z"/></svg>