<svg xmlns="http://www.w3.org/2000/svg" xmlns:svg="http://www.w3.org/2000/svg" id="svg2" width="16" height="16" version="1.1" viewBox="0 0 16 16"><metadata id="metadata10"/><path id="path4" fill="#d8d8d8" fill-opacity="1" d="M 7.9973502,7.0538e-4 C 4.8520616,-0.0433157 1.8177661,1.9774208 0.62687183,4.8852993 -0.6162919,7.7418299 0.02604253,11.290274 2.2066279,13.518906 4.3049401,15.777045 7.7618248,16.599327 10.656147,15.546263 13.656335,14.527907 15.867422,11.58041 15.98577,8.4112986 16.185041,5.3305934 14.400549,2.2502805 11.639585,0.87545195 10.517899,0.29922175 9.2580839,-0.00121482 7.9973502,7.0538e-4 Z m 0,1.59976472 c 2.8980408,-0.054874 5.6299728,2.120978 6.2352688,4.9534841 0.67711,2.7240057 -0.696877,5.7737408 -3.184487,7.0725788 C 8.5497349,15.035052 5.1515412,14.460778 3.2601686,12.302658 1.2929929,10.213048 1.0461969,6.7720429 2.6907872,4.4211487 3.8529046,2.676429 5.898962,1.5828018 7.9973502,1.6004701 Z"/><path id="path4466" fill="#98b7cf" fill-opacity="1" d="m 8.0000002,4.0005882 c -2.2076753,0 -3.9994117,1.7917365 -3.9994117,3.9994117 0,2.2076751 1.7917364,3.9994121 3.9994117,3.9994121 2.2076748,0 3.9994118,-1.791737 3.9994118,-3.9994121 0,-2.2076752 -1.791737,-3.9994117 -3.9994118,-3.9994117 z"/></svg>