<svg xmlns="http://www.w3.org/2000/svg" xmlns:svg="http://www.w3.org/2000/svg" id="svg2" width="16" height="16" fill="#000" version="1.1" viewBox="0 0 16 16"><metadata id="metadata10"/><g id="g4139"><path id="path4137" fill="#000" fill-opacity="1" fill-rule="nonzero" stroke="none" stroke-width="1" d="M 7.9999985,0 C 6.8038553,0 5.8181819,0.98567531 5.8181819,2.1818191 c 0,1.196149 0.9856734,2.1818209 2.1818166,2.1818209 1.1961443,0 2.1818195,-0.9856719 2.1818195,-2.1818209 C 10.181818,0.98567531 9.1961428,0 7.9999985,0 Z" color="#000" display="inline" enable-background="new" overflow="visible" visibility="visible" style="marker:none"/><path id="path4135" fill="#000" fill-opacity="1" fill-rule="nonzero" stroke="none" stroke-width="1" d="m 7.9999985,5.8181825 c -1.1961432,0 -2.1818166,0.985675 -2.1818166,2.1818206 0,1.1961425 0.9856734,2.1818149 2.1818166,2.1818149 1.1961443,0 2.1818195,-0.9856724 2.1818195,-2.1818149 0,-1.1961456 -0.9856752,-2.1818206 -2.1818195,-2.1818206 z" color="#000" display="inline" enable-background="new" overflow="visible" visibility="visible" style="marker:none"/><path id="path8910-7" fill="#000" fill-opacity="1" fill-rule="nonzero" stroke="none" stroke-width="1" d="m 7.9999985,11.636363 c -1.1961432,0 -2.1818166,0.985674 -2.1818166,2.181818 0,1.196144 0.9856734,2.181819 2.1818166,2.181819 1.1961443,0 2.1818195,-0.985675 2.1818195,-2.181819 0,-1.196144 -0.9856752,-2.181818 -2.1818195,-2.181818 z" color="#000" display="inline" enable-background="new" overflow="visible" visibility="visible" style="marker:none"/></g></svg>