<svg xmlns="http://www.w3.org/2000/svg" xmlns:xlink="http://www.w3.org/1999/xlink" width="512" height="512" fill="#000" viewBox="0 0 512 512"><path d="M 496,256l-80,0 l0,128 l 32,0 q 13,0 22.5,9.5t 9.5,22.5l0,64 q0,13.5 -9.5,22.75t-22.5,9.25l-96,0 q-13.5,0 -22.75-9.25t-9.25-22.75l0-64 q0-13 9.25-22.5t 22.75-9.5l 32,0 l0-128 l-224,0 l0,128 l 32,0 q 13,0 22.5,9.5t 9.5,22.5l0,64 q0,13.5 -9.5,22.75t-22.5,9.25l-96,0 q-13.5,0 -22.75-9.25t-9.25-22.75l0-64 q0-13 9.25-22.5 t 22.75-9.5l 32,0 l0-128 l-112,0 q-6.5,0 -11.25-4.75t-4.75-11.25t 4.75-11.25t 11.25-4.75l 240,0 l0-96 l-32,0 q-13.5,0 -22.75-9.25t-9.25-22.75l0-64 q0-13 9.25-22.5t 22.75-9.5l 96,0 q 13,0 22.5,9.5t 9.5,22.5l0,64 q0,13.5 -9.5,22.75t-22.5,9.25l-32,0 l0,96 l 208,0 q 6.5,0 11.25,4.75t 4.75,11.25t-4.75,11.25t-11.25,4.75z"/></svg>