<svg xmlns="http://www.w3.org/2000/svg" xmlns:svg="http://www.w3.org/2000/svg" id="svg2" width="16" height="16" version="1.1" viewBox="0 0 16 16"><metadata id="metadata10"/><path id="path4" fill="#000" d="m 8,16 q 1.625,0 3.109,-0.633 1.484,-0.633 2.555,-1.703 1.071,-1.07 1.703,-2.555 Q 15.999,9.624 16,8 16.001,6.376 15.367,4.891 14.733,3.406 13.664,2.336 12.595,1.266 11.109,0.633 9.623,0 8,0 6.377,0 4.891,0.633 3.405,1.266 2.336,2.336 1.267,3.406 0.633,4.891 -0.001,6.376 0,8 q 0.001,1.624 0.633,3.109 0.632,1.485 1.703,2.555 1.071,1.07 2.555,1.703 Q 6.375,16 8,16 z M 8,1 q 1.422,0 2.719,0.555 1.297,0.555 2.234,1.492 0.937,0.937 1.492,2.234 Q 15,6.578 15,8 15,9.422 14.445,10.719 13.89,12.016 12.953,12.953 12.016,13.89 10.719,14.445 9.422,15 8,15 6.578,15 5.281,14.445 3.984,13.89 3.047,12.953 2.11,12.016 1.555,10.719 1,9.422 1,8 1,6.578 1.555,5.281 2.11,3.984 3.047,3.047 3.984,2.11 5.281,1.555 6.578,1 8,1 z m 2.516,10.922 Q 10.719,12.125 11,11.813 V 4.188 Q 10.703,3.875 10.516,4.079 L 4.125,7.704 Q 4,7.829 4,8.001 4,8.173 4.125,8.298 z"/></svg>