<svg xmlns="http://www.w3.org/2000/svg" xmlns:xlink="http://www.w3.org/1999/xlink" width="16" height="16" version="1.1" viewBox="0 0 16 16"><path fill="#000" d="M8 16q-2.172 0-4.016-0.266t-2.914-0.727-1.070-1.008v-2q0-0.125 0.094-0.297 0.969 0.578 3.164 0.938t4.742 0.359 4.742-0.359 3.164-0.938q0.094 0.172 0.094 0.297v2q0 0.547-1.070 1.008t-2.914 0.727-4.016 0.266zM8 12q-2.172 0-4.016-0.266t-2.914-0.727-1.070-1.008v-2q0-0.125 0.094-0.297 0.969 0.578 3.164 0.938t4.742 0.359 4.742-0.359 3.164-0.938q0.094 0.172 0.094 0.297v2q0 0.547-1.070 1.008t-2.914 0.727-4.016 0.266zM8 8q-2.172 0-4.016-0.266t-2.914-0.727-1.070-1.008v-2q0-0.125 0.094-0.297 0.969 0.578 3.164 0.938t4.742 0.359 4.742-0.359 3.164-0.938q0.094 0.172 0.094 0.297v2q0 0.547-1.070 1.008t-2.914 0.727-4.016 0.266zM8 4q-2.172 0-4.016-0.266t-2.914-0.727-1.070-1.008 1.070-1.008 2.914-0.727 4.016-0.266 4.016 0.266 2.914 0.727 1.070 1.008-1.070 1.008-2.914 0.727-4.016 0.266z"/></svg>