<svg xmlns="http://www.w3.org/2000/svg" xmlns:xlink="http://www.w3.org/1999/xlink" width="512" height="512" fill="#000" viewBox="0 0 512 512"><path d="M 480,512l-32,0 l0-224 q0-13 -9.5-22.5t-22.5-9.5l-320,0 q-13.5,0 -22.75,9.5t-9.25,22.5l0,224 l-32,0 q-13,0 -22.5-9.5t-9.5-22.5l0-448 q0-13 9.5-22.5t 22.5-9.5l 32,0 l 320,0 l 64,0 l 64,64l0,416 q0,13 -9.5,22.5t-22.5,9.5zM 384,32l-320,0 l0,128 q0,13.5 9.25,22.75t 22.75,9.25l 256,0 q 13,0 22.5-9.25t 9.5-22.75l0-128 zM 256,64l 64,0 l0,96 l-64,0 l0-96 zM 112,288l 288,0 q 6.5,0 11.25,4.75t 4.75,11.25t-4.75,11.25t-11.25,4.75l-288,0 q-6.5,0 -11.25-4.75t-4.75-11.25t 4.75-11.25t 11.25-4.75zM 112,384l 288,0 q 6.5,0 11.25,4.75t 4.75,11.25t-4.75,11.25t-11.25,4.75l-288,0 q-6.5,0 -11.25-4.75t-4.75-11.25t 4.75-11.25t 11.25-4.75zM 112,480l 288,0 q 6.5,0 11.25,4.75t 4.75,11.25t-4.75,11.25t-11.25,4.75l-288,0 q-6.5,0 -11.25-4.75t-4.75-11.25t 4.75-11.25t 11.25-4.75z"/></svg>