<svg xmlns="http://www.w3.org/2000/svg" xmlns:xlink="http://www.w3.org/1999/xlink" width="512" height="512" fill="#000" viewBox="0 0 512 512"><path d="M 480,512l-448,0 q-13.5,0 -22.75-9.25t-9.25-22.75t 9.25-22.75t 22.75-9.25l 192,0 l0-64 l-96,0 q-13.5,0 -22.75-9.25t-9.25-22.75l0-320 q0-13.5 9.25-22.75t 22.75-9.25l 128,0 l0,144 q0,6.5 4.75,11.25t 11.25,4.75l 143.5,0 l 0.5,0.5l0,191.5 q0,13.5 -9.5,22.75t-22.5,9.25l-96,0 l0,64 l 192,0 q 13.5,0 22.75,9.5t 9.25,22.75 t-9.25,22.5t-22.75,9.25zM 288-0.5q 13,0 22,9l 96.5,97q 9.5,9 9,22.5l-127.5,0 l0-128.5 z"/></svg>