<svg xmlns="http://www.w3.org/2000/svg" xmlns:xlink="http://www.w3.org/1999/xlink" width="16" height="16" version="1.1" viewBox="0 0 16 16"><path fill="#000" d="M8.016 16q-1.844 0-3.469-0.789t-2.75-2.18l1.578-1.234q0.844 1.031 2.055 1.617t2.586 0.586q1.625 0 3.008-0.805t2.188-2.188 0.805-3.008-0.805-3.008-2.188-2.188-3.008-0.805q-2.25 0-3.953 1.5l1.969 1.969q0.016 0.547-0.359 0.531h-5.156q-0.203 0-0.336-0.219t-0.148-0.453l-0.016-4.969q-0.016-0.375 0.531-0.359l2.094 2.094q1.094-0.984 2.477-1.539t2.898-0.555q1.625 0 3.109 0.641t2.555 1.711 1.703 2.547 0.633 3.102-0.633 3.109-1.703 2.555-2.555 1.703-3.109 0.633z"/></svg>