<svg xmlns="http://www.w3.org/2000/svg" xmlns:svg="http://www.w3.org/2000/svg" id="svg4578" width="128" height="128" version="1.1" viewBox="0 0 128 128"><title id="title4144">OpenMediaVault logo</title><metadata id="metadata4583"/><g id="layer1" transform="translate(-130.69566,-505.14818)"><rect id="rect4142" width="128" height="128" x="130.696" y="505.148" fill="#5dacdf" fill-opacity="1" stroke="#000" stroke-dasharray="none" stroke-miterlimit="4" stroke-opacity="1" stroke-width="0"/><g id="g4145"><rect id="rect3772-1-2-9-1-9" width="103.214" height="93.811" x="143.089" y="522.243" fill="none" fill-opacity="1" stroke="#fff" stroke-dasharray="none" stroke-miterlimit="4" stroke-opacity="1" stroke-width="4.786" rx="1.857" ry="1.857"/><g id="g4372" transform="matrix(2.3495262,0,0,2.3495262,-228.61678,-1077.8896)"><path id="path23-4-1-6-9-0" fill="#fff" fill-opacity="1" d="m 163.94765,686.42298 c -0.38058,0 -0.68819,0.2853 -0.68819,0.6388 l 0,7.0865 c 0,0.3535 0.30762,0.6392 0.68819,0.6392 l 32.44367,0 c 0.37849,0 0.68778,-0.2877 0.68778,-0.6392 l 0,-7.0865 c 0,-0.3535 -0.3072,-0.6388 -0.68778,-0.6388 l -32.44367,0 z m 3.93921,1.6958 a 2.4863311,2.4863311 0 0 1 2.48647,2.4865 2.4863311,2.4863311 0 0 1 -2.48647,2.4864 2.4863311,2.4863311 0 0 1 -2.48605,-2.4864 2.4863311,2.4863311 0 0 1 2.48605,-2.4865 z m 0,1.1881 a 1.29858,1.29858 0 0 0 -1.29836,1.2984 1.29858,1.29858 0 0 0 1.29836,1.2987 1.29858,1.29858 0 0 0 1.29878,-1.2987 1.29858,1.29858 0 0 0 -1.29878,-1.2984 z"/><path id="path23-4-1-8-7-5" fill="#fff" fill-opacity="1" d="m 163.94765,696.82628 c -0.38058,0 -0.68819,0.2853 -0.68819,0.6388 l 0,7.0865 c 0,0.3534 0.30762,0.6392 0.68819,0.6392 l 32.44367,0 c 0.37849,0 0.68778,-0.2877 0.68778,-0.6392 l 0,-7.0865 c 0,-0.3535 -0.3072,-0.6388 -0.68778,-0.6388 l -32.44367,0 z m 3.93921,1.6958 a 2.4863311,2.4863311 0 0 1 2.48647,2.4864 2.4863311,2.4863311 0 0 1 -2.48647,2.4865 2.4863311,2.4863311 0 0 1 -2.48605,-2.4865 2.4863311,2.4863311 0 0 1 2.48605,-2.4864 z m 0,1.1881 a 1.29858,1.29858 0 0 0 -1.29836,1.2983 1.29858,1.29858 0 0 0 1.29836,1.2988 1.29858,1.29858 0 0 0 1.29878,-1.2988 1.29858,1.29858 0 0 0 -1.29878,-1.2983 z"/><path id="path23-4-1-8-3-8-73" fill="#fff" fill-opacity="1" d="m 163.94765,707.22958 c -0.38058,0 -0.68819,0.2853 -0.68819,0.6388 l 0,7.0865 c 0,0.3534 0.30762,0.6391 0.68819,0.6391 l 32.44367,0 c 0.37849,0 0.68778,-0.2876 0.68778,-0.6391 l 0,-7.0865 c 0,-0.3535 -0.3072,-0.6388 -0.68778,-0.6388 l -32.44367,0 z m 3.93921,1.6957 a 2.4863311,2.4863311 0 0 1 2.48647,2.4865 2.4863311,2.4863311 0 0 1 -2.48647,2.4865 2.4863311,2.4863311 0 0 1 -2.48605,-2.4865 2.4863311,2.4863311 0 0 1 2.48605,-2.4865 z m 0,1.1881 a 1.29858,1.29858 0 0 0 -1.29836,1.2984 1.29858,1.29858 0 0 0 1.29836,1.2988 1.29858,1.29858 0 0 0 1.29878,-1.2988 1.29858,1.29858 0 0 0 -1.29878,-1.2984 z"/></g></g></g></svg>